HIERARCHY
ROOT Hips
{
	OFFSET 0.000000 0.000000 0.000000
	CHANNELS 6 Xposition Yposition Zposition Yrotation Xrotation Zrotation
	JOINT Chest
	{
		OFFSET 0.000000 -0.009281 11.569106
		CHANNELS 3 Yrotation Xrotation Zrotation
		JOINT Chest2
		{
			OFFSET -0.000000 0.016865 9.269641
			CHANNELS 3 Yrotation Xrotation Zrotation
			JOINT Chest3
			{
				OFFSET -0.000000 0.000001 8.374491
				CHANNELS 3 Yrotation Xrotation Zrotation
				JOINT Chest4
				{
					OFFSET -0.000000 0.000001 8.374493
					CHANNELS 3 Yrotation Xrotation Zrotation
					JOINT Neck
					{
						OFFSET -0.000000 0.000002 12.152554
						CHANNELS 3 Yrotation Xrotation Zrotation
						JOINT Head
						{
							OFFSET -0.000000 0.040101 7.802319
							CHANNELS 3 Yrotation Xrotation Zrotation
							End Site
							{
								OFFSET -0.000000 0.020947 14.853096
							}
						}
					}
					JOINT RightCollar
					{
						OFFSET 2.894404 0.000001 6.791374
						CHANNELS 3 Yrotation Xrotation Zrotation
						JOINT RightShoulder
						{
							OFFSET 13.574684 0.000001 0.000000
							CHANNELS 3 Yrotation Xrotation Zrotation
							JOINT RightElbow
							{
								OFFSET 23.923903 0.000002 0.000000
								CHANNELS 3 Yrotation Xrotation Zrotation
								JOINT RightWrist
								{
									OFFSET 19.846718 0.012767 0.000000
									CHANNELS 3 Yrotation Xrotation Zrotation
									End Site
									{
										OFFSET 14.973145 0.000001 0.000000
									}
								}
							}
						}
					}
					JOINT LeftCollar
					{
						OFFSET -2.894404 0.000001 6.791374
						CHANNELS 3 Yrotation Xrotation Zrotation
						JOINT LeftShoulder
						{
							OFFSET -13.574684 -0.000001 0.000000
							CHANNELS 3 Yrotation Xrotation Zrotation
							JOINT LeftElbow
							{
								OFFSET -23.923903 -0.000002 0.000000
								CHANNELS 3 Yrotation Xrotation Zrotation
								JOINT LeftWrist
								{
									OFFSET -19.846718 0.012763 0.000000
									CHANNELS 3 Yrotation Xrotation Zrotation
									End Site
									{
										OFFSET -14.973145 -0.000001 0.000000
									}
								}
							}
						}
					}
				}
			}
		}
	}
	JOINT RightHip
	{
		OFFSET 9.469263 0.004643 0.045487
		CHANNELS 3 Yrotation Xrotation Zrotation
		JOINT RightKnee
		{
			OFFSET 0.000000 0.002661 -40.478676
			CHANNELS 3 Yrotation Xrotation Zrotation
			JOINT RightAnkle
			{
				OFFSET 0.000000 0.049106 -35.224068
				CHANNELS 3 Yrotation Xrotation Zrotation
				JOINT RightToe
				{
					OFFSET -0.000001 12.539529 -6.151390
					CHANNELS 3 Yrotation Xrotation Zrotation
					End Site
					{
						OFFSET -0.000001 5.044994 -1.291870
					}
				}
			}
		}
	}
	JOINT LeftHip
	{
		OFFSET -9.469263 0.004641 0.045487
		CHANNELS 3 Yrotation Xrotation Zrotation
		JOINT LeftKnee
		{
			OFFSET 0.000000 0.002661 -40.478676
			CHANNELS 3 Yrotation Xrotation Zrotation
			JOINT LeftAnkle
			{
				OFFSET 0.000000 0.049106 -35.224068
				CHANNELS 3 Yrotation Xrotation Zrotation
				JOINT LeftToe
				{
					OFFSET -0.000001 12.539529 -6.151390
					CHANNELS 3 Yrotation Xrotation Zrotation
					End Site
					{
						OFFSET -0.000001 5.044994 -1.291870
					}
				}
			}
		}
	}
}
MOTION
Frames: 16
Frame Time: 0.016667
46.598293 43.190048 83.114532 -2.512869 0.084778 -121.201912 -2.240280 -4.322291 2.350715 -0.742383 -1.815168 1.140982 -0.742384 -1.815167 1.140983 -0.553353 -1.362769 0.853462 0.936795 -12.040016 -3.523090 0.285191 13.789710 -6.335634 9.794103 5.558434 -1.764854 42.870895 -14.562266 -14.510805 -25.358274 -60.529451 85.302362 -41.560315 38.956687 51.536021 -8.114183 5.473351 -6.717029 -39.966432 -10.472933 19.577752 -2.972008 -64.873567 -60.314996 29.838935 15.819753 -74.410362 -2.406565 6.761186 15.951191 -4.630867 -20.476600 4.139308 1.817107 5.998399 -1.511392 3.895068 3.443788 -0.048393 3.511259 -0.996606 8.893109 0.280197 -4.293606 7.191811 -1.840263 -0.008067 9.935285 -0.280335 0.495886 -0.004869 
46.391373 43.371246 83.059494 -2.745741 0.382472 -120.606934 -2.592638 -4.446299 2.108458 -0.774108 -1.800520 1.080593 -0.774108 -1.800520 1.080590 -0.577352 -1.351766 0.808100 1.000114 -12.076549 -3.575110 0.385741 13.723118 -6.406766 9.777651 5.696058 -1.842789 42.957853 -14.476243 -14.529277 -25.480424 -60.536615 85.290191 -41.446209 38.787773 51.581691 -8.138700 5.515301 -6.753811 -39.883059 -10.687615 19.615251 -3.045520 -64.943201 -60.295947 29.970351 16.150851 -74.569970 -2.944782 6.723332 17.014438 -5.368469 -20.102551 5.326429 3.444638 6.371837 0.663544 2.378182 2.565953 -0.138282 2.694830 -1.109274 7.318228 0.706749 -3.153432 4.084561 -2.967340 -0.391314 9.460194 0.795594 0.331962 0.010553 
46.250614 43.531170 82.956200 -2.849920 0.561586 -120.248404 -2.781946 -4.495151 2.045674 -0.800869 -1.788414 1.060747 -0.800870 -1.788413 1.060752 -0.597501 -1.342708 0.793157 1.048535 -12.118793 -3.645686 0.450231 13.644668 -6.519526 9.736374 5.839836 -1.879873 43.054497 -14.463383 -14.511654 -25.749499 -60.595656 85.371832 -41.323437 38.679187 51.675357 -8.203368 5.658600 -6.727586 -39.806349 -10.863850 19.724227 -2.971607 -65.038270 -60.411985 30.152546 16.398232 -74.611750 -3.404578 6.837627 17.407376 -5.809025 -19.883932 6.145500 5.034253 6.749968 2.807080 1.053475 1.868787 -0.121798 1.968389 -1.065164 5.042006 1.115888 -2.447040 0.827535 -4.057453 -0.338819 9.703972 1.616827 0.134531 0.008855 
46.072231 43.623405 82.813164 -2.733373 0.579439 -120.085504 -2.722561 -4.435866 2.127414 -0.827799 -1.788661 1.073416 -0.827799 -1.788661 1.073414 -0.617659 -1.342957 0.802576 1.077156 -12.137191 -3.723707 0.472648 13.609316 -6.655758 9.718313 5.877654 -1.819699 43.106376 -14.516140 -14.393063 -26.210492 -60.615504 85.588308 -41.335209 38.805194 51.751869 -8.221319 5.747715 -6.638961 -39.809604 -10.823633 19.768058 -2.967694 -65.080706 -60.462364 30.146980 16.383921 -74.472565 -3.530205 7.179436 17.116133 -6.020829 -19.891939 6.833366 6.217570 7.219770 4.552497 0.078248 1.229715 0.002685 1.577961 -0.486821 2.019527 1.482463 -2.611374 -1.005098 -5.341427 0.180958 9.155237 2.373668 -0.114524 0.010959 
45.851234 43.509190 82.659409 -2.576465 0.358916 -119.987422 -2.432429 -4.430534 2.257998 -0.867979 -1.820741 1.110068 -0.867980 -1.820742 1.110068 -0.647624 -1.367141 0.829898 1.107491 -12.122932 -3.808957 0.493688 13.634389 -6.806182 9.691606 5.851493 -1.801365 43.154163 -14.752244 -14.172322 -26.339523 -60.584857 85.514358 -41.478684 39.020218 51.738632 -8.173370 5.776424 -6.581919 -39.888964 -10.576438 19.750353 -3.184148 -65.024029 -60.339763 30.054564 16.113451 -74.349956 -3.255108 7.312157 16.373432 -6.115125 -19.917491 7.291640 6.721281 7.818463 5.607080 -0.374412 0.582865 0.239810 1.552052 0.125315 -1.383920 1.894977 -3.012941 -1.394513 -7.134175 0.583290 7.430541 3.167602 -0.256208 0.012391 
45.639393 43.152111 82.532219 -2.485891 0.118829 -119.859588 -2.134220 -4.455418 2.354267 -0.929487 -1.859036 1.153248 -0.929487 -1.859036 1.153251 -0.693548 -1.396041 0.862032 1.144066 -12.102410 -3.888097 0.528892 13.671553 -6.942535 9.598402 5.676024 -1.890393 43.211226 -15.037430 -13.817720 -25.907020 -60.598839 84.986172 -41.629136 39.102536 51.661133 -8.119346 5.798868 -6.559328 -39.950111 -10.277764 19.766612 -3.223412 -64.918646 -60.482684 29.948744 15.810978 -74.318571 -2.825245 7.152904 15.468574 -5.999900 -19.754179 7.088545 6.310487 8.460234 6.421910 -0.225124 -0.128099 0.425935 1.684332 0.536901 -4.546885 2.244396 -3.191416 -1.659051 -9.329849 0.558034 5.318080 3.974498 -0.197558 0.022883 
45.486130 42.708122 82.455452 -2.484154 0.072531 -119.788636 -2.044015 -4.458920 2.519316 -1.015363 -1.870760 1.198167 -1.015363 -1.870760 1.198169 -0.757789 -1.405072 0.895439 1.196643 -12.099833 -3.968392 0.595054 13.676176 -7.073630 9.497075 5.376736 -1.983829 43.290859 -15.138132 -13.483072 -25.200343 -60.685828 84.254311 -41.720923 39.015243 51.552629 -8.066942 5.793629 -6.560544 -39.908874 -10.003580 19.768535 -2.926453 -64.838228 -61.031975 29.838740 15.621261 -74.383827 -2.470780 6.716090 14.740995 -5.988958 -19.248161 6.169005 5.430095 8.995270 7.439696 0.333194 -0.774369 0.440745 1.725811 0.856466 -6.986390 2.438975 -3.400403 -2.405461 -11.559042 0.392627 3.282979 4.672383 0.015108 -0.011412 
45.386848 42.223774 82.427742 -2.472416 0.165402 -119.700021 -2.094080 -4.411128 2.672061 -1.108814 -1.838204 1.249040 -1.108814 -1.838205 1.249041 -0.827785 -1.380932 0.933367 1.262151 -12.126090 -4.058360 0.683299 13.627625 -7.216653 9.466156 5.320319 -2.067466 43.413277 -15.213925 -13.465710 -24.622395 -60.842123 83.653083 -41.742879 38.819950 51.478313 -8.063961 5.864481 -6.570522 -39.741063 -9.869218 19.749646 -2.421869 -64.825817 -61.749527 29.674621 15.576793 -74.573426 -2.116888 6.149469 14.372883 -6.340788 -18.459534 5.173220 4.852645 9.407615 8.271549 0.779178 -1.317451 0.405326 1.764704 1.134602 -8.629053 2.558635 -3.635580 -3.283632 -13.718431 0.085210 0.967895 5.192846 0.299045 -0.030403 
45.201157 41.756016 82.446999 -2.231683 0.325736 -119.785781 -2.150551 -4.142459 2.938719 -1.173748 -1.774548 1.305752 -1.173748 -1.774547 1.305753 -0.876453 -1.333432 0.975831 1.300860 -12.177253 -4.144227 0.723478 13.531683 -7.362304 9.534271 5.522142 -2.003297 43.509323 -15.219584 -13.779339 -24.275179 -61.126450 83.302592 -41.710640 38.639972 51.447007 -8.238123 6.261544 -6.484318 -39.477691 -10.055513 19.808348 -1.904199 -64.907219 -62.273212 29.445348 15.685219 -74.916151 -1.695240 6.147429 14.831534 -6.385752 -18.087555 4.971850 4.182962 9.569670 7.935362 0.957463 -1.465412 0.326891 1.914392 1.485515 -8.998501 2.791793 -3.703924 -4.223233 -15.632129 -0.537426 -1.554975 5.373116 0.620210 -0.046957 
44.853638 41.264042 82.500481 -1.954898 0.319229 -119.998596 -2.094403 -3.872518 3.262489 -1.190469 -1.746889 1.360818 -1.190470 -1.746889 1.360815 -0.888897 -1.312831 1.017135 1.282616 -12.207256 -4.213916 0.660803 13.472604 -7.501984 9.655036 5.773732 -1.754982 43.530360 -15.072149 -14.155179 -24.117174 -61.493129 83.227993 -41.723215 38.628333 51.429272 -8.486266 6.812811 -6.321609 -39.283618 -10.349323 19.903648 -1.403005 -65.017390 -62.526912 29.186457 15.841531 -75.271861 -1.242593 6.645407 15.701283 -5.652278 -18.392642 5.572771 3.099632 9.389698 6.455091 0.894311 -1.153200 0.341154 2.270590 1.705678 -8.236814 3.098519 -3.716489 -5.190496 -16.638841 -1.430698 -3.922882 4.800151 1.042571 -0.087377 
44.510021 40.675110 82.564255 -2.080173 0.167215 -119.930677 -2.085647 -3.961486 3.334284 -1.174407 -1.784003 1.392588 -1.174408 -1.784002 1.392591 -0.876674 -1.340692 1.040932 1.212986 -12.175371 -4.276401 0.499771 13.525703 -7.652106 9.740564 5.829295 -1.580837 43.542924 -14.986791 -14.280621 -24.171199 -61.620416 83.397300 -41.817782 38.789737 51.392246 -8.485766 6.828277 -6.188834 -39.322089 -10.292202 19.757642 -0.995331 -65.018736 -62.636680 29.021190 15.845634 -75.434146 -0.929296 6.670466 15.999996 -4.951762 -18.657884 5.613808 2.512069 9.084964 6.021519 0.529775 -0.820329 0.297506 2.691041 1.576285 -7.327499 3.194023 -3.874631 -5.684104 -16.403877 -2.440485 -5.651500 3.462734 1.622049 -0.086779 
44.268967 40.071114 82.609116 -2.365747 0.029293 -119.551642 -2.133794 -4.181572 3.184246 -1.137858 -1.855061 1.386239 -1.137858 -1.855061 1.386237 -0.849115 -1.393891 1.036134 1.125142 -12.075190 -4.337212 0.300566 13.704264 -7.809818 9.720586 5.530439 -1.617051 43.651674 -15.025825 -14.080200 -24.161909 -61.302341 83.437393 -41.898320 38.973339 51.361114 -8.207888 6.240791 -6.218421 -39.534511 -9.945654 19.398892 -0.899582 -64.866429 -62.639829 29.056017 15.669414 -75.330334 -0.835145 6.262252 15.358734 -4.488847 -18.529958 4.761211 2.636987 8.862767 7.097828 -0.085450 -0.717605 0.175202 3.149786 1.467256 -6.507823 3.004071 -4.196452 -5.661950 -14.994065 -2.800083 -6.815161 1.537322 1.712111 -0.093722 
44.050789 39.484028 82.681610 -2.552859 -0.093230 -119.009981 -2.153467 -4.342305 2.944262 -1.073903 -1.924032 1.349481 -1.073903 -1.924033 1.349483 -0.801106 -1.445409 1.008636 1.052727 -11.957236 -4.398675 0.129027 13.916323 -7.963466 9.649532 5.098186 -1.745841 43.749923 -14.980628 -13.800044 -24.098618 -60.799537 83.358067 -41.885199 39.017647 51.375880 -7.947087 5.769089 -6.319416 -39.714261 -9.920487 19.121673 -1.073047 -64.652795 -62.561849 29.303974 15.411576 -75.014731 -0.916451 5.831581 14.087415 -3.959292 -18.209144 3.818985 3.147978 8.829750 8.361913 -0.841126 -0.811110 0.007470 3.483524 1.462790 -5.494473 2.870421 -4.470828 -5.688840 -12.844125 -2.526574 -7.656353 -0.547220 1.372537 -0.001520 
43.693996 39.004490 82.564964 -2.407850 -0.196451 -118.510872 -2.044975 -4.234526 2.750272 -0.983355 -1.958987 1.304686 -0.983355 -1.958987 1.304688 -0.733266 -1.471352 0.975269 1.004134 -11.874195 -4.459341 0.005089 14.064792 -8.104220 9.557904 4.881094 -1.876606 43.678302 -14.739806 -13.640198 -24.220909 -60.569004 83.489753 -41.793019 38.944564 51.433322 -7.875612 5.652661 -6.434093 -39.766335 -10.180084 19.065283 -1.290028 -64.555635 -62.472428 29.602310 15.202411 -74.587968 -0.877304 5.824144 12.985039 -3.009272 -18.049045 2.640672 3.456390 9.075920 8.626443 -1.498189 -1.046365 -0.123747 3.690626 1.576092 -4.018347 3.072460 -4.326164 -6.567452 -10.766390 -2.062499 -7.723773 -2.223969 0.917910 0.181762 
43.266937 38.739540 82.512604 -2.331064 -0.213233 -118.290585 -2.077145 -4.099287 2.740686 -0.873507 -1.964500 1.274757 -0.873507 -1.964500 1.274756 -0.650971 -1.475208 0.953169 0.977763 -11.868694 -4.501171 -0.063568 14.071495 -8.195856 9.544542 5.122303 -1.846234 43.371066 -14.486220 -13.780661 -24.521354 -60.747655 83.910042 -41.669485 38.866771 51.514134 -7.971221 5.802361 -6.438945 -39.764566 -10.455626 19.203268 -1.576737 -64.622011 -62.232483 29.774868 15.070140 -74.226343 -0.898966 5.779187 12.254369 -2.025391 -17.838033 0.956008 3.071251 9.251960 8.280068 -1.455098 -1.077257 -0.056359 3.596654 1.539936 -2.401076 3.455669 -3.901771 -8.277372 -8.841383 -1.268195 -6.713522 -3.510619 0.191241 0.165243 
42.933311 38.571468 82.522919 -2.562859 -0.449665 -118.499616 -2.094048 -4.298005 3.011170 -0.772456 -1.958353 1.279859 -0.772456 -1.958353 1.279863 -0.575186 -1.470394 0.957329 0.979896 -11.916777 -4.516793 -0.063072 13.981741 -8.222502 9.579798 5.613026 -1.725177 43.000559 -14.492919 -14.005487 -24.938972 -61.060252 84.521064 -41.616039 38.905895 51.574625 -8.092308 5.958899 -6.396316 -39.833277 -10.432637 19.441782 -1.965955 -64.725338 -61.797817 29.815418 14.880424 -73.972226 -0.802519 5.658480 11.467753 -1.176860 -18.174877 -1.229925 2.316968 9.710380 8.258722 -0.999053 -1.079189 -0.121111 3.452182 1.267747 -1.086249 3.549629 -4.505768 -9.192154 -6.579651 -0.029353 -5.050489 -4.418861 -0.341823 0.083337 
